# xmcd
#
# Track frame offsets: 
#        150
#        12220
#        24658
#        33384
#        44713
#        55583
#        67075
#        80555
#        91479
#        104638
#        113270
#        124744
#
# Disc length: 1865 seconds
#
# Revision: 0
# Processed by: cddbd v1.5.2PL0 Copyright (c) Steve Scherf et al.
# Submitted via: ExactAudioCopyFreeDBPlugin 1.0
#
DISCID=9c07470c
DTITLE=The Who - I'm A Boy
DYEAR=1966
DGENRE=Rock
TTITLE0=I'm A Boy
TTITLE1=Run Run Run
TTITLE2=Heatwave
TTITLE3=Boris The Spider
TTITLE4=I Need You
TTITLE5=Circles
TTITLE6=Whiskey Man
TTITLE7=In The City
TTITLE8=Don't Look Away
TTITLE9=You See My Way
TTITLE10=Cobwebs and Strange
TTITLE11=Disguises
EXTD=
EXTT0=
EXTT1=
EXTT2=
EXTT3=
EXTT4=
EXTT5=
EXTT6=
EXTT7=
EXTT8=
EXTT9=
EXTT10=
EXTT11=
PLAYORDER=
